<svg xmlns="http://www.w3.org/2000/svg" viewBox="0 0 420 120" role="img" aria-labelledby="title desc">
  <title id="title">Pawstool logo</title>
  <desc id="desc">Pawstool wordmark with a warm orange paw-tool icon.</desc>
  <defs>
    <linearGradient id="bg" x1="12" y1="8" x2="98" y2="106" gradientUnits="userSpaceOnUse">
      <stop offset="0" stop-color="#fb923c"/>
      <stop offset="0.55" stop-color="#f97316"/>
      <stop offset="1" stop-color="#c2410c"/>
    </linearGradient>
  </defs>
  <rect x="8" y="10" width="100" height="100" rx="25" fill="url(#bg)"/>
  <g>
    <circle cx="38" cy="43" r="10" fill="#fff7ed"/>
    <circle cx="58" cy="35" r="10" fill="#fff7ed"/>
    <circle cx="78" cy="43" r="10" fill="#fff7ed"/>
    <circle cx="91" cy="62" r="9" fill="#fff7ed"/>
    <path d="M34 78c0-18 13-28 29-28 15 0 29 10 29 28 0 13-9 21-22 16-5-2-10-4-15-4s-10 2-15 4c-12 5-23-3-23-16Z" fill="#fff7ed"/>
    <path d="M71 67 84 54a6 6 0 0 1 9 9L80 76l12 12a6 6 0 0 1-9 9L71 85 59 97a6 6 0 0 1-9-9l12-12-9-9a6 6 0 1 1 9-9l9 9Z" fill="#1f2937" opacity="0.16"/>
  </g>
  <text x="128" y="62" font-family="Inter, ui-sans-serif, system-ui, -apple-system, BlinkMacSystemFont, 'Segoe UI', sans-serif" font-size="46" font-weight="850" letter-spacing="-2" fill="#1f2937">Paws<tspan fill="#f97316">tool</tspan></text>
  <text x="131" y="88" font-family="Inter, ui-sans-serif, system-ui, sans-serif" font-size="14" font-weight="700" letter-spacing="1.5" fill="#64748b">FREE BROWSER TOOLS</text>
</svg>
